<svg xmlns="http://www.w3.org/2000/svg" viewBox="0 0 64 64">
  <rect x="5" y="5" width="54" height="54" rx="12" fill="#fff7e8" stroke="#411307" stroke-width="4"/>
  <rect x="13" y="16" width="38" height="28" rx="4" fill="#f5eed5" stroke="#411307" stroke-width="3"/>
  <path d="M18 44v11M28 44v11M38 44v11" fill="none" stroke-linecap="round" stroke-width="4"/>
  <path d="M18 44v11" stroke="#2670c5"/>
  <path d="M28 44v11" stroke="#f6bd3e"/>
  <path d="M38 44v11" stroke="#e45b32"/>
  <rect x="18" y="25" width="5" height="6" rx="1" fill="#411307"/>
  <rect x="26" y="25" width="5" height="6" rx="1" fill="#411307"/>
  <rect x="34" y="25" width="5" height="6" rx="1" fill="#411307"/>
  <rect x="42" y="25" width="5" height="6" rx="1" fill="#411307"/>
  <circle cx="17" cy="37" r="2.2" fill="#6f8c43"/>
  <circle cx="25" cy="37" r="2.2" fill="#f6bd3e"/>
  <circle cx="33" cy="37" r="2.2" fill="#2670c5"/>
  <path d="M43 18l5-6 5 6" fill="none" stroke="#e79153" stroke-linecap="round" stroke-linejoin="round" stroke-width="3"/>
</svg>
